<svg xmlns="http://www.w3.org/2000/svg">
  <symbol id="arrowDown" viewBox="0 0 15 15">
    <path d="M7.5 9.85938C7.41667 9.85938 7.33604 9.84375 7.25812 9.8125C7.17979 9.78125 7.11458 9.73958 7.0625 9.6875L4.1875 6.8125C4.07292 6.69792 4.01562 6.55208 4.01562 6.375C4.01562 6.19792 4.07292 6.05208 4.1875 5.9375C4.30208 5.82292 4.44792 5.76562 4.625 5.76562C4.80208 5.76562 4.94792 5.82292 5.0625 5.9375L7.5 8.375L9.9375 5.9375C10.0521 5.82292 10.1979 5.76562 10.375 5.76562C10.5521 5.76562 10.6979 5.82292 10.8125 5.9375C10.9271 6.05208 10.9844 6.19792 10.9844 6.375C10.9844 6.55208 10.9271 6.69792 10.8125 6.8125L7.9375 9.6875C7.875 9.75 7.80729 9.79417 7.73438 9.82C7.66146 9.84625 7.58333 9.85938 7.5 9.85938Z"/>
  </symbol>

  <symbol id="heart" viewBox="0 0 20 20">
    <path d="M3.01896 12.4112L1.71017 11.0386C-0.570057 8.54146 -0.570057 4.45484 1.71017 1.95774C3.77998 -0.310966 7.12612 0.256907 9.33618 2.36589C9.74633 2.754 9.8893 2.94805 10 2.94805C10.1106 2.94805 10.2537 2.754 10.6611 2.36589C12.8739 0.256907 16.22 -0.310966 18.2898 1.95774C20.5701 4.45484 20.5701 8.54146 18.2898 11.0386L17.3669 12.0059L10.5829 19.1148C10.2914 19.3601 10.1457 19.4942 10 19.5C9.85431 19.4942 9.70852 19.3601 9.41442 19.1148L5.42059 14.9282"/>
  </symbol>
</svg>
